<svg id="map" viewBox="0 0 500 500" fill="none" xmlns="http://www.w3.org/2000/svg">
  <path stroke="#CBB083" stroke-linejoin="round" stroke-width="5" d="M 250.346 48.604 C 275.665 44.3 278.223 39.583 278.223 39.583 C 307.479 81.035 405.624 133.476 464.075 131.998 L 455.869 170.703 L 448.083 210.279 C 446.882 207.02 433.201 211.949 421.362 221.878 C 409.523 231.808 399.527 246.738 405.695 263.48 C 409.587 258.316 416.875 259.798 422.79 263.777 C 428.705 267.755 433.247 274.231 431.647 279.052 C 421.862 295.585 421.826 317.849 428.634 335.985 C 435.441 354.121 449.092 368.129 466.681 368.151 C 459.15 404.087 434.952 412.596 404.894 413.111 C 374.835 413.626 338.916 406.147 307.944 410.106 C 296.795 418.821 294.204 428.433 294.831 436.035 C 295.458 443.636 299.303 449.227 301.024 449.899 C 277.141 470.404 229.872 457.505 187.825 440.308 C 145.778 423.11 108.952 401.612 105.955 404.916 C 144.646 375.311 145.887 279.861 123.122 241.812 C 100.356 203.764 59.763 182.541 33.319 179.659 L 34.182 157.577 L 35.044 135.495 C 78.132 145.334 129.492 141.637 171.312 126.467 C 213.133 111.297 245.415 84.654 250.346 48.604 Z" />
  <ellipse fill="#CBB083" class="city current-city" id="lyon" cx="356" cy="288" rx="7.5" ry="7.5" />
  <ellipse fill="#CBB083" class="city" id="toulouse" cx="233" cy="395" rx="7.5" ry="7.5" />
  <ellipse fill="#CBB083" class="city" id="dijon" cx="364" cy="214" rx="7.5" ry="7.5" />
  <ellipse fill="#CBB083" class="city" id="versailles" cx="261" cy="148" rx="7.5" ry="7.5" />
  <ellipse fill="#CBB083" class="city" id="bar-sur-loup" cx="438" cy="383" rx="7.5" ry="7.5" />
  <ellipse fill="#CBB083" class="city" id="nice" cx="454" cy="379" rx="7.5" ry="7.5" />
  <ellipse fill="#CBB083" class="city" id="annecy" cx="405" cy="280" rx="7.5" ry="7.5" />
</svg>