<?xml version="1.0" encoding="UTF-8"?>
<svg width="140px" height="33px" viewBox="0 0 140 33" version="1.1" xmlns="http://www.w3.org/2000/svg" xmlns:xlink="http://www.w3.org/1999/xlink">
    <!-- Generator: Sketch 49.3 (51167) - http://www.bohemiancoding.com/sketch -->
    <title>LOGO</title>
    <desc>Created with Sketch.</desc>
    <defs>
        <polygon id="path-1" points="0.110375332 0.294955263 13.3402982 0.294955263 13.3402982 4.54033276 0.110375332 4.54033276"></polygon>
    </defs>
    <g id="pages" stroke="none" stroke-width="1" fill="none" fill-rule="evenodd">
        <g id="Mobile-Copy-3" transform="translate(-27.000000, -17.000000)">
            <g id="Group-4" transform="translate(-57.000000, 0.000000)">
                <g id="Group">
                    <g id="Group-5" transform="translate(84.000000, 17.000000)">
                        <g id="LOGO" transform="translate(0.180307, 0.000000)">
                            <polygon id="Fill-1" fill="#005b2e" points="5.68709576 14.9724983 8.47236447 21.0855936 9.82875926 22.4544134 10.4148047 10.236506 8.66081016 11.9905005 8.66288099 18.4618498 6.95651562 13.7237867"></polygon>
                            <polygon id="Fill-2" fill="#005b2e" points="19.4893965 12.5032385 20.2887375 25.2616329 21.7755947 23.7789174 20.8809954 8.5852248 19.187055 6.89749692 16.4659821 16.7525852 13.7449092 6.89749692 12.0530397 8.5852248 11.1542987 23.7789174 12.6287309 25.2616329 13.4322136 12.5032385 16.4659821 22.1077561"></polygon>
                            <path d="M16.4661892,0.0774196184 L0.0776267015,16.4659821 L16.4661892,32.850403 L32.8526809,16.4659821 L16.4661892,0.0774196184 Z M1.80884205,16.4659821 L16.4661892,1.79828081 L31.127678,16.4659821 L16.4661892,31.1274709 L1.80884205,16.4659821 Z" id="Fill-3" fill="#005b2e"></path>
                            <polygon id="Fill-4" fill="#005b2e" points="26.6847085 16.1414828 27.2251956 14.969392 22.4871325 10.2354706 23.0793904 22.4616613 24.3529519 21.1570373 24.2307729 17.4854526 25.545751 18.64926 26.051034 17.5165151 24.265977 15.7873706 24.2307729 13.8697803"></polygon>
                            <g id="Group-20" transform="translate(39.424051, 7.999594)">
                                <g id="Group-7" transform="translate(86.974934, 11.432407)">
                                    <mask id="mask-2" fill="white">
                                        <use xlink:href="#path-1"></use>
                                    </mask>
                                    <g id="Clip-6"></g>
                                    <path d="M0.110375332,2.01184719 L10.3340717,2.01184719 C10.6364131,1.98078472 10.8890546,1.87103063 11.1209878,1.67844328 L12.607845,0.464935872 C12.7465907,0.363465116 12.9474614,0.201940239 13.210457,0.363465116 C13.4775943,0.524989993 13.260157,1.08204373 13.198032,1.42166014 C12.9474614,2.41565938 12.4918784,4.48856197 12.4628867,4.54033276 L0.110375332,4.54033276 L0.110375332,2.01184719 Z" id="Fill-5" fill="#005b2e" mask="url(#mask-2)"></path>
                                </g>
                                <path d="M45.021539,9.6989476 L40.7142089,3.26901501 C40.1675094,4.10563104 36.6098204,9.6989476 36.6098204,9.6989476 L45.021539,9.6989476 Z M51.9215504,14.248565 L53.4104784,15.3958058 C53.4850284,15.4765682 53.5202325,15.5987473 53.4995242,15.7188555 C53.4539659,15.8368929 53.3835576,15.9673553 53.2530952,15.9570012 L47.1544957,15.9570012 C46.978475,15.9570012 46.8977126,15.725068 46.9598375,15.5573306 C47.2290456,15.1597309 47.9372701,14.7849104 48.0345992,14.5571189 C48.1050075,14.3293274 47.9124201,14.1118901 47.7923119,13.9151611 L46.5788045,12.0990416 L35.0359883,12.0990416 C34.6673802,12.6809453 33.882535,13.9151611 33.882535,13.9151611 C33.7624267,14.1118901 33.5719102,14.3293274 33.6526727,14.5571189 C33.7375768,14.7849104 34.4458012,15.1597309 34.7232927,15.5573306 C34.793701,15.725068 34.6984427,15.9570012 34.522422,15.9570012 L28.9208221,15.9570012 C28.7820764,15.9673553 28.7178806,15.8368929 28.6702515,15.7188555 C28.651614,15.5987473 28.6806056,15.4765682 28.7655097,15.3958058 L30.2482253,14.248565 L38.1049609,2.38684068 C37.7922653,2.17561584 37.3366824,1.87120357 37.0902534,1.67033289 C36.8479661,1.46946221 36.9825701,0.991100077 37.3822407,0.991100077 L43.9902648,1.00145424 L44.7088434,1.00145424 C45.1064431,0.991100077 45.2389763,1.47360388 44.996689,1.68068705 C44.7481892,1.88155773 44.3029604,2.19839499 43.9944064,2.407549 C44.0875939,2.33921155 51.9215504,14.248565 51.9215504,14.248565 Z" id="Fill-8" fill="#005b2e"></path>
                                <path d="M13.2268166,11.5695299 L1.86623358,2.43302023 C1.32988815,1.89253314 0.762480252,1.78899155 0.824605204,1.1594587 C0.874305167,0.991721327 0.979917586,0.902675562 1.15800912,0.910958889 L5.11122694,0.93580887 L13.1853999,7.75712867 L21.8104142,0.910958889 L25.9065194,0.910958889 C26.1322401,0.93580887 26.2047192,1.04556295 26.2378525,1.19466284 C26.2792691,1.36654187 26.1840109,1.49700427 26.0763276,1.5964042 C25.788482,1.83040819 25.4861406,2.05405802 25.2190033,2.31084115 L13.2268166,11.5695299 Z" id="Fill-10" fill="#005b2e"></path>
                                <path d="M4.50468031,13.8648398 L4.50468031,6.82194105 L1.862299,4.6993385 C1.862299,7.61506961 1.84987401,13.8648398 1.84987401,13.8648398 C1.84987401,14.5254352 0.474841721,15.2543679 0.394079283,15.4821594 C0.352662648,15.5774177 0.352662648,15.7058093 0.406504273,15.7969259 C0.406504273,15.7969259 0.406504273,15.9584507 0.750262344,15.9625924 L5.60222114,15.9625924 C5.8797126,15.9625924 5.90663341,15.8776883 5.95012088,15.7969259 C6.00189167,15.7203051 6.00810417,15.6250468 5.96668753,15.4821594 C5.91077508,15.3351304 4.50468031,14.577206 4.50468031,13.8648398" id="Fill-12" fill="#005b2e"></path>
                                <path d="M25.2192103,13.8749869 C25.260627,14.5562906 26.2380596,14.9062611 26.6687926,15.4964482 C26.7102092,15.5834231 26.7102092,15.720098 26.6584384,15.8112146 C26.6584384,15.8112146 26.6584384,15.9685978 26.3043262,15.978952 L20.8352595,15.978952 C20.4915015,15.9685978 20.4915015,15.8112146 20.4915015,15.8112146 C20.4335182,15.720098 20.4335182,15.5834231 20.4749348,15.4964482 C20.9118803,14.9062611 21.8831004,14.5562906 21.9307295,13.8749869 L21.9307295,7.25660863 L25.2129979,4.65357312 L25.2129979,13.8749869 L25.2192103,13.8749869 Z" id="Fill-14" fill="#005b2e"></path>
                                <path d="M70.9371701,0.960658851 C70.5478537,0.956517187 70.4049663,1.43073766 70.6596786,1.63782083 C70.9019659,1.83040819 71.0883408,1.94016227 71.6661028,2.34604529 C72.2459357,2.75814081 72.2107316,3.27584875 72.2107316,3.27584875 L72.2107316,11.8118172 C72.2107316,11.8118172 59.4357705,0.991721327 59.2887414,0.958588019 L55.5881651,0.958588019 C55.1905654,0.956517187 55.0683863,1.426596 55.3106736,1.63160834 C55.552961,1.83040819 56.9093558,3.06048225 56.9093558,3.06048225 L56.9093558,13.9054281 C56.9093558,14.5556693 55.318957,15.2535396 55.2340529,15.4834019 C55.1905654,15.5786602 55.1905654,15.7049809 55.2381945,15.7960975 C55.2381945,15.7960975 55.2381945,15.9576224 55.5943776,15.9617641 L61.0013193,15.9617641 C61.2850233,15.9617641 61.3119441,15.87686 61.3575024,15.7960975 C61.4030607,15.7194768 61.4175565,15.5538102 61.3243691,15.4564811 C61.2249691,15.3405145 59.7070495,14.5763776 59.7029078,13.8640115 L59.7070495,5.44608043 L72.1817399,15.9721182 L74.9276629,15.9617641 L74.9276629,2.89895737 C74.9276629,2.89895737 74.8800337,2.63596174 75.2134376,2.3853911 C75.5613374,2.14103295 76.0997536,1.83040819 76.3420409,1.63160834 C76.5926116,1.43073766 76.46422,0.956517187 76.0645495,0.960658851 L70.9371701,0.960658851 Z" id="Fill-16" fill="#005b2e"></path>
                                <path d="M85.1439042,6.88800058 L92.9509399,6.88800058 C92.9509399,6.88800058 93.4748604,6.92320472 93.8910976,6.36200931 C94.3052639,5.79460141 94.3694597,5.67242234 94.5724012,5.44048918 C94.7732719,5.19198937 95.2723423,5.32452261 95.2599173,5.71383898 L95.2599173,10.4871062 C95.2723423,10.8764225 94.7732719,11.0068849 94.5724012,10.7645976 C94.3694597,10.5223103 94.3052639,10.4001312 93.8910976,9.83479417 C93.4748604,9.27359876 92.9509399,9.30466124 92.9509399,9.30466124 L85.1335501,9.3150154 L85.1335501,15.9727395 L80.5777202,15.9727395 C80.1801205,15.978952 80.0475873,15.4964482 80.2940163,15.2914358 C80.5363036,15.0884943 80.7309618,14.9870236 81.3045822,14.5832114 C81.8782026,14.1731867 81.8471401,13.6616912 81.8471401,13.6616912 L81.8471401,3.27647 C81.8471401,3.27647 81.8782026,2.75876206 81.3045822,2.34666654 C80.7309618,1.93871269 80.5363036,1.83102944 80.2940163,1.63844208 C80.0475873,1.42928808 80.1801205,0.957138437 80.5777202,0.9612801 L99.4657766,0.9612801 C99.7619056,2.03190012 100.043539,3.12737011 100.275472,4.22076928 C100.331384,4.44856077 100.306534,4.58316484 100.132584,4.68670643 C99.7950389,4.87929378 99.4989099,4.58316484 99.1489394,4.34501919 C98.5421857,3.91428618 98.0493277,3.38415325 97.2064992,3.4069324 L85.1439042,3.41728656 L85.1439042,6.88800058" id="Fill-18" fill="#005b2e"></path>
                            </g>
                        </g>
                    </g>
                </g>
            </g>
        </g>
    </g>
</svg>