<svg viewBox="0 0 18 13" fill="none" xmlns="http://www.w3.org/2000/svg">
  <path d="M 11.896 0.797 C 11.755 0.659 11.577 0.564 11.383 0.523 C 11.189 0.482 10.987 0.497 10.802 0.567 L 5.896 2.378 C 5.731 2.439 5.584 2.541 5.469 2.674 C 5.353 2.806 5.273 2.966 5.236 3.137 C 5.2 3.309 5.207 3.487 5.259 3.655 C 5.31 3.823 5.403 3.975 5.53 4.097 L 6.361 4.904 L 6.831 4.427 L 6 3.621 C 5.954 3.577 5.921 3.523 5.902 3.463 C 5.884 3.403 5.881 3.339 5.894 3.278 C 5.906 3.216 5.933 3.159 5.975 3.111 C 6.016 3.063 6.069 3.027 6.129 3.006 L 10.901 1.242 L 6.441 5.791 C 6.404 5.828 6.375 5.872 6.356 5.92 C 6.337 5.968 6.326 6.02 6.327 6.072 C 6.328 6.124 6.339 6.176 6.359 6.223 C 6.38 6.271 6.41 6.314 6.447 6.351 C 6.484 6.388 6.529 6.416 6.577 6.436 C 6.626 6.455 6.678 6.465 6.731 6.463 C 6.783 6.463 6.834 6.452 6.883 6.431 C 6.931 6.411 6.974 6.382 7.011 6.345 L 11.474 1.793 L 9.822 6.581 C 9.802 6.64 9.766 6.694 9.719 6.736 C 9.673 6.777 9.616 6.807 9.555 6.821 C 9.493 6.836 9.43 6.835 9.368 6.818 C 9.308 6.801 9.253 6.769 9.207 6.725 L 8.377 5.925 L 7.906 6.402 L 8.734 7.206 C 8.832 7.301 8.948 7.375 9.075 7.426 C 9.202 7.476 9.338 7.501 9.474 7.5 C 9.553 7.5 9.631 7.49 9.707 7.471 C 9.878 7.431 10.038 7.348 10.168 7.229 C 10.299 7.111 10.397 6.962 10.453 6.796 L 12.154 1.876 C 12.221 1.691 12.231 1.49 12.186 1.299 C 12.14 1.107 12.04 0.933 11.896 0.797 Z" fill="#F94A56" />
  <path d="M 0.55 11.185 C 0.534 11.168 0.521 11.148 0.513 11.126 C 0.504 11.104 0.499 11.081 0.5 11.057 L 0.5 8.725 C 0.499 8.702 0.504 8.678 0.513 8.656 C 0.521 8.634 0.535 8.615 0.552 8.598 C 0.567 8.581 0.586 8.567 0.608 8.558 C 0.629 8.55 0.652 8.545 0.674 8.546 C 0.698 8.546 0.722 8.55 0.743 8.559 C 0.765 8.568 0.785 8.581 0.802 8.598 C 0.818 8.615 0.831 8.635 0.84 8.656 C 0.849 8.678 0.853 8.702 0.853 8.725 L 0.853 10.878 L 2.094 10.878 C 2.141 10.878 2.186 10.897 2.219 10.93 C 2.252 10.964 2.272 11.01 2.272 11.057 C 2.272 11.105 2.252 11.151 2.219 11.185 C 2.186 11.218 2.141 11.237 2.094 11.237 L 0.674 11.237 C 0.651 11.238 0.629 11.233 0.606 11.224 C 0.586 11.216 0.566 11.202 0.55 11.185 Z" fill="#F94A56" />
  <path d="M 3.754 9.444 C 3.892 9.527 4.005 9.646 4.084 9.791 C 4.165 9.94 4.207 10.109 4.205 10.281 L 4.205 11.052 C 4.205 11.099 4.187 11.143 4.156 11.176 C 4.124 11.21 4.08 11.228 4.035 11.228 C 3.99 11.228 3.946 11.21 3.915 11.176 C 3.882 11.143 3.864 11.099 3.864 11.052 L 3.864 10.924 C 3.788 11.023 3.692 11.101 3.581 11.155 C 3.455 11.216 3.317 11.243 3.178 11.236 C 3.04 11.229 2.904 11.186 2.785 11.113 C 2.654 11.029 2.547 10.91 2.478 10.768 C 2.402 10.617 2.364 10.449 2.366 10.278 C 2.365 10.107 2.405 9.938 2.486 9.789 C 2.564 9.644 2.679 9.524 2.819 9.442 C 2.961 9.36 3.122 9.316 3.286 9.317 C 3.45 9.317 3.61 9.36 3.754 9.444 Z M 3.59 10.842 C 3.679 10.785 3.752 10.706 3.802 10.611 C 3.854 10.509 3.88 10.395 3.878 10.281 C 3.88 10.165 3.853 10.05 3.802 9.948 C 3.754 9.851 3.68 9.771 3.59 9.715 C 3.498 9.66 3.394 9.631 3.287 9.631 C 3.182 9.631 3.077 9.66 2.986 9.715 C 2.895 9.772 2.822 9.852 2.771 9.948 C 2.719 10.05 2.692 10.165 2.694 10.281 C 2.692 10.396 2.719 10.509 2.771 10.611 C 2.822 10.707 2.896 10.787 2.987 10.842 C 3.078 10.899 3.182 10.927 3.287 10.926 C 3.394 10.928 3.499 10.899 3.59 10.842 Z" fill="#F94A56" />
  <path d="M 5.775 11.126 C 5.583 11.006 5.425 10.833 5.319 10.626 C 5.207 10.411 5.15 10.17 5.152 9.926 C 5.15 9.683 5.207 9.444 5.319 9.231 C 5.426 9.025 5.584 8.852 5.775 8.731 C 5.967 8.608 6.188 8.544 6.414 8.546 C 6.579 8.546 6.723 8.568 6.843 8.615 C 6.964 8.663 7.086 8.737 7.21 8.842 C 7.232 8.859 7.25 8.881 7.262 8.907 C 7.271 8.932 7.276 8.958 7.276 8.983 C 7.276 9.005 7.272 9.026 7.264 9.046 C 7.256 9.066 7.243 9.083 7.227 9.097 C 7.198 9.127 7.159 9.142 7.119 9.142 C 7.077 9.142 7.037 9.126 7.005 9.097 C 6.927 9.025 6.839 8.966 6.744 8.923 C 6.66 8.888 6.55 8.868 6.414 8.868 C 6.248 8.867 6.085 8.917 5.945 9.009 C 5.802 9.105 5.685 9.237 5.605 9.394 C 5.522 9.557 5.479 9.739 5.479 9.924 C 5.479 10.108 5.522 10.29 5.605 10.453 C 5.685 10.61 5.802 10.741 5.945 10.835 C 6.085 10.929 6.248 10.978 6.414 10.976 C 6.623 10.976 6.823 10.901 7.015 10.749 C 7.046 10.724 7.083 10.709 7.122 10.708 C 7.141 10.707 7.161 10.712 7.179 10.719 C 7.196 10.727 7.212 10.74 7.225 10.755 C 7.252 10.788 7.267 10.832 7.265 10.877 C 7.265 10.901 7.261 10.924 7.252 10.946 C 7.243 10.968 7.23 10.988 7.213 11.004 C 6.988 11.201 6.705 11.307 6.414 11.304 C 6.189 11.309 5.967 11.248 5.775 11.126 Z" fill="#F94A56" />
  <path d="M 8.797 9.444 C 8.936 9.527 9.05 9.646 9.128 9.791 C 9.211 9.94 9.253 10.109 9.25 10.281 L 9.25 11.052 C 9.25 11.099 9.232 11.143 9.2 11.176 C 9.168 11.21 9.125 11.228 9.08 11.228 C 9.035 11.228 8.991 11.21 8.959 11.176 C 8.927 11.143 8.909 11.099 8.909 11.052 L 8.909 10.924 C 8.833 11.023 8.736 11.101 8.625 11.155 C 8.499 11.216 8.361 11.243 8.222 11.236 C 8.083 11.229 7.949 11.186 7.829 11.113 C 7.698 11.029 7.592 10.91 7.522 10.768 C 7.447 10.617 7.409 10.449 7.411 10.278 C 7.409 10.107 7.451 9.938 7.531 9.789 C 7.609 9.644 7.723 9.524 7.863 9.442 C 8.006 9.36 8.167 9.316 8.331 9.317 C 8.494 9.317 8.655 9.36 8.797 9.444 Z M 8.634 10.842 C 8.723 10.785 8.797 10.706 8.847 10.611 C 8.899 10.509 8.924 10.395 8.923 10.281 C 8.924 10.165 8.898 10.05 8.847 9.948 C 8.799 9.851 8.725 9.771 8.634 9.715 C 8.542 9.66 8.438 9.631 8.332 9.631 C 8.226 9.631 8.122 9.66 8.03 9.715 C 7.94 9.772 7.866 9.852 7.816 9.948 C 7.763 10.05 7.737 10.165 7.738 10.281 C 7.736 10.396 7.763 10.509 7.816 10.611 C 7.866 10.707 7.941 10.787 8.032 10.842 C 8.123 10.899 8.227 10.927 8.332 10.926 C 8.438 10.928 8.543 10.899 8.634 10.842 Z" fill="#F94A56" />
  <path d="M 10.877 9.44 C 11.022 9.521 11.141 9.639 11.222 9.782 C 11.306 9.931 11.348 10.098 11.347 10.268 C 11.349 10.437 11.309 10.604 11.231 10.753 C 11.158 10.893 11.048 11.012 10.913 11.095 C 10.777 11.176 10.62 11.219 10.461 11.218 C 10.332 11.218 10.204 11.19 10.087 11.137 C 9.973 11.082 9.873 11.004 9.793 10.907 L 9.793 11.833 C 9.794 11.856 9.791 11.879 9.782 11.902 C 9.774 11.923 9.76 11.943 9.743 11.959 C 9.727 11.975 9.707 11.988 9.685 11.996 C 9.663 12.005 9.64 12.009 9.616 12.008 C 9.593 12.009 9.57 12.005 9.548 11.996 C 9.526 11.988 9.505 11.975 9.489 11.958 C 9.473 11.942 9.46 11.922 9.451 11.901 C 9.443 11.879 9.439 11.856 9.44 11.833 L 9.44 10.27 C 9.437 10.1 9.481 9.932 9.566 9.784 C 9.647 9.642 9.765 9.523 9.908 9.442 C 10.057 9.36 10.223 9.317 10.393 9.317 C 10.562 9.316 10.729 9.359 10.877 9.44 Z M 10.707 10.825 C 10.8 10.768 10.876 10.69 10.928 10.595 C 10.983 10.495 11.011 10.382 11.009 10.268 C 11.01 10.153 10.982 10.04 10.928 9.939 C 10.888 9.867 10.835 9.805 10.77 9.755 C 10.706 9.705 10.632 9.668 10.553 9.646 C 10.474 9.625 10.392 9.62 10.31 9.63 C 10.229 9.641 10.151 9.667 10.08 9.709 C 9.987 9.765 9.911 9.844 9.859 9.939 C 9.806 10.04 9.78 10.153 9.781 10.268 C 9.779 10.382 9.806 10.494 9.859 10.595 C 9.91 10.691 9.987 10.77 10.08 10.825 C 10.174 10.88 10.283 10.909 10.393 10.907 C 10.503 10.91 10.612 10.881 10.707 10.825 Z" fill="#F94A56" />
  <path d="M 11.782 11.163 C 11.65 11.114 11.546 11.052 11.471 10.973 C 11.457 10.959 11.446 10.942 11.439 10.924 C 11.432 10.906 11.427 10.886 11.427 10.866 C 11.426 10.84 11.432 10.814 11.444 10.79 C 11.456 10.766 11.474 10.746 11.494 10.731 C 11.537 10.7 11.575 10.683 11.61 10.683 C 11.653 10.683 11.695 10.703 11.735 10.746 C 11.777 10.794 11.84 10.836 11.925 10.872 C 12.01 10.907 12.1 10.926 12.192 10.926 C 12.318 10.926 12.415 10.903 12.485 10.859 C 12.555 10.815 12.588 10.756 12.588 10.683 C 12.588 10.61 12.555 10.551 12.486 10.504 C 12.418 10.457 12.303 10.417 12.139 10.385 C 11.715 10.3 11.503 10.118 11.503 9.839 C 11.5 9.734 11.534 9.632 11.599 9.553 C 11.666 9.472 11.752 9.411 11.849 9.376 C 11.956 9.336 12.067 9.317 12.18 9.317 C 12.313 9.315 12.443 9.34 12.565 9.39 C 12.679 9.439 12.77 9.506 12.834 9.591 C 12.861 9.621 12.877 9.66 12.878 9.701 C 12.878 9.74 12.86 9.777 12.821 9.808 C 12.795 9.828 12.762 9.837 12.729 9.836 C 12.672 9.835 12.616 9.812 12.574 9.77 C 12.523 9.72 12.464 9.682 12.398 9.658 C 12.326 9.634 12.25 9.623 12.174 9.624 C 12.072 9.624 11.99 9.642 11.925 9.678 C 11.86 9.716 11.827 9.765 11.827 9.829 C 11.827 9.87 11.838 9.91 11.861 9.944 C 11.882 9.976 11.925 10.004 11.986 10.03 C 12.073 10.064 12.163 10.09 12.254 10.107 C 12.495 10.158 12.664 10.228 12.764 10.318 C 12.865 10.41 12.915 10.525 12.915 10.669 C 12.916 10.771 12.888 10.872 12.833 10.957 C 12.778 11.043 12.698 11.111 12.591 11.162 C 12.483 11.212 12.355 11.237 12.205 11.237 C 12.061 11.237 11.919 11.212 11.782 11.163 Z" fill="#F94A56" />
  <path d="M 14.669 9.367 C 14.684 9.384 14.696 9.404 14.704 9.427 C 14.711 9.448 14.715 9.472 14.713 9.495 L 14.713 11.042 C 14.713 11.089 14.696 11.134 14.666 11.168 C 14.636 11.201 14.595 11.219 14.552 11.219 C 14.509 11.219 14.468 11.201 14.438 11.168 C 14.407 11.134 14.39 11.089 14.39 11.042 L 14.39 11.004 C 14.322 11.078 14.24 11.137 14.151 11.176 C 14.056 11.216 13.954 11.237 13.853 11.236 C 13.716 11.239 13.582 11.204 13.461 11.134 C 13.345 11.063 13.251 10.958 13.188 10.831 C 13.123 10.697 13.091 10.537 13.091 10.349 L 13.091 9.497 C 13.091 9.45 13.108 9.406 13.138 9.372 C 13.169 9.338 13.21 9.32 13.253 9.32 C 13.296 9.32 13.336 9.338 13.367 9.372 C 13.397 9.406 13.414 9.45 13.414 9.497 L 13.414 10.349 C 13.414 10.537 13.461 10.679 13.552 10.774 C 13.643 10.868 13.765 10.918 13.917 10.918 C 14.001 10.919 14.084 10.899 14.158 10.859 C 14.228 10.822 14.287 10.767 14.33 10.698 C 14.372 10.632 14.393 10.553 14.393 10.472 L 14.393 9.493 C 14.391 9.47 14.395 9.446 14.403 9.425 C 14.411 9.403 14.423 9.382 14.438 9.366 C 14.47 9.334 14.512 9.316 14.554 9.317 C 14.597 9.317 14.638 9.335 14.669 9.367 Z" fill="#F94A56" />
  <path d="M 15.257 11.156 C 15.173 11.1 15.107 11.021 15.067 10.93 C 15.019 10.827 14.996 10.714 14.998 10.601 L 14.998 8.719 C 14.997 8.696 15.001 8.673 15.01 8.651 C 15.018 8.629 15.031 8.611 15.048 8.595 C 15.065 8.578 15.086 8.566 15.107 8.558 C 15.129 8.549 15.153 8.545 15.177 8.546 C 15.2 8.544 15.223 8.549 15.246 8.557 C 15.268 8.566 15.288 8.578 15.305 8.595 C 15.321 8.611 15.334 8.63 15.342 8.652 C 15.352 8.673 15.356 8.696 15.355 8.719 L 15.355 10.599 C 15.355 10.684 15.371 10.754 15.405 10.81 C 15.44 10.866 15.481 10.892 15.534 10.892 L 15.622 10.892 C 15.643 10.891 15.665 10.895 15.685 10.904 C 15.705 10.912 15.723 10.924 15.737 10.941 C 15.767 10.975 15.784 11.019 15.782 11.065 C 15.783 11.089 15.776 11.113 15.764 11.134 C 15.752 11.156 15.735 11.174 15.713 11.188 C 15.662 11.222 15.601 11.239 15.539 11.236 L 15.532 11.236 C 15.434 11.239 15.338 11.21 15.257 11.156 Z" fill="#F94A56" />
  <path d="M 17.455 10.357 C 17.424 10.386 17.384 10.402 17.343 10.401 L 16.046 10.401 C 16.066 10.555 16.143 10.695 16.264 10.791 C 16.383 10.89 16.529 10.94 16.702 10.94 C 16.775 10.939 16.848 10.926 16.916 10.901 C 16.982 10.881 17.044 10.849 17.099 10.808 C 17.132 10.783 17.171 10.77 17.212 10.77 C 17.248 10.768 17.285 10.78 17.313 10.805 C 17.354 10.84 17.375 10.879 17.375 10.922 C 17.375 10.942 17.37 10.963 17.36 10.981 C 17.35 10.998 17.337 11.014 17.32 11.025 C 17.234 11.093 17.136 11.144 17.032 11.177 C 16.925 11.215 16.814 11.235 16.702 11.236 C 16.527 11.24 16.354 11.198 16.2 11.114 C 16.055 11.036 15.934 10.918 15.852 10.774 C 15.768 10.623 15.725 10.452 15.728 10.278 C 15.726 10.105 15.767 9.935 15.846 9.782 C 15.921 9.638 16.035 9.519 16.174 9.439 C 16.313 9.357 16.472 9.317 16.651 9.317 C 16.825 9.317 16.976 9.355 17.104 9.434 C 17.231 9.512 17.333 9.626 17.398 9.762 C 17.467 9.903 17.5 10.066 17.5 10.247 C 17.501 10.267 17.498 10.288 17.489 10.307 C 17.482 10.326 17.469 10.343 17.455 10.357 Z M 16.246 9.754 C 16.143 9.846 16.078 9.969 16.05 10.125 L 17.186 10.125 C 17.165 9.971 17.108 9.846 17.014 9.754 C 16.922 9.661 16.799 9.615 16.648 9.615 C 16.485 9.615 16.35 9.663 16.246 9.754 Z" fill="#F94A56" />
</svg>