<?xml version="1.0" encoding="utf-8"?>
<svg viewBox="0 0 220 90" xmlns="http://www.w3.org/2000/svg">
  <g id="g1431" transform="matrix(1, 0, 0, 1, -134.77903747558594, -17.16965103149414)">
    <path d="m 217.93801,79.826151 -0.238,-1.094 a 8.846,8.846 0 1 1 -5.139,-16.231 9.142,9.142 0 0 1 5.14,1.619 l 0.238,-1.1 h 3.857 v 16.8 z m -4.237,-3.52 a 5.23,5.23 0 0 0 3.332,-1.238 v -7.232 a 5.019,5.019 0 0 0 -3.332,-1.285 4.879,4.879 0 0 0 -0.137,9.757 h 0.137 z" style="fill:#282929" id="path1055"/>
    <path d="m 241.92901,66.738151 a 7.206,7.206 0 0 1 0.761,3.235 c 0,4.38 -3.52,7.474 -7.853,7.474 a 6.729,6.729 0 0 1 -1.381,-0.1 l -0.952,1.381 5.807,1.713 c 2.951,0.857 4.95,2.856 4.95,5.854 0,3.141 -3.331,6.14 -8.662,6.14 -4.332,0 -8.044,-2.427 -8.044,-6.234 a 5.894,5.894 0 0 1 2.332,-4.427 l -2.426,-0.807 3.713,-4.9 a 7.213,7.213 0 0 1 -3.19,-6.09 c 0,-4.378 3.52,-7.473 7.853,-7.473 a 8,8 0 0 1 5.14,1.76 l 0.953,-1.237 h 4.141 v 3.713 z m -4.568,17.562 -4.759,-1.475 a 3.66,3.66 0 0 0 -1.9,2.856 c 0,1.76 2,3.093 4.093,3.093 2.57,0 4.093,-1.333 4.093,-2.475 a 2.015,2.015 0 0 0 -1.523,-2 z m -2.522,-17.8 a 3.475,3.475 0 1 0 3.472,3.477 v 0 a 3.415,3.415 0 0 0 -3.358,-3.472 c -0.039,0 -0.077,0 -0.116,0 z" style="fill:#282929" id="path1057"/>
    <path d="m 257.20801,66.641151 a 5.223,5.223 0 0 0 -3.616,1.571 v 11.613 h -4.759 v -16.8 h 4.521 l 0.238,1.761 a 5.042,5.042 0 0 1 4.236,-2.285 9.284,9.284 0 0 1 2.047,0.238 v 4.284 a 9.553,9.553 0 0 0 -2.667,-0.382 z" style="fill:#282929" id="path1059"/>
    <path d="m 271.96101,80.350151 c -5.236,0 -9.472,-3.858 -9.472,-8.9 0,-5.042 4.236,-8.949 9.472,-8.949 a 9.14,9.14 0 0 1 9.424,8.949 c 0.003,5.045 -4.233,8.9 -9.424,8.9 z m 0,-13.9 a 4.983,4.983 0 0 0 -0.1,9.946 h 0.107 a 4.984,4.984 0 0 0 0,-9.948 z" style="fill:#282929" id="path1061"/>
    <path d="m 204.61201,55.141151 v -16.553 h 1.718 v 15.008 h 8.422 v 1.543 z" style="fill:#282929" id="path1063"/>
    <path d="m 215.77501,44.708151 v -0.466 a 2.541,2.541 0 0 0 1.686,-2.477 4.061,4.061 0 0 0 -1.631,-2.8 l 1.457,-1.456 0.349,0.32 a 4.135,4.135 0 0 1 1.4,2.972 3.95,3.95 0 0 1 -3.261,3.907 z" style="fill:#282929" id="path1065"/>
    <path d="m 224.54601,55.141151 v -16.553 h 1.72 v 16.553 z" style="fill:#282929" id="path1067"/>
    <path d="m 244.65401,55.141151 h -1.718 v -11.511 c 0,-2.652 -1.341,-3.992 -3.556,-3.992 a 7.824,7.824 0 0 0 -4.953,2.215 11.036,11.036 0 0 0 -0.816,0.757 v 12.531 h -1.72 v -16.553 h 1.72 v 2.273 a 9.041,9.041 0 0 1 6.031,-2.768 c 3.176,0 5.015,1.924 5.015,5.508 z" style="fill:#282929" id="path1069"/>
    <path d="m 253.66101,55.607151 a 9.527,9.527 0 0 1 -4.458,-1.2 v -1.889 a 9.912,9.912 0 0 0 4.458,1.542 c 1.923,0 3.439,-1.019 3.439,-2.739 0,-1.34 -1.37,-2.418 -2.39,-3.088 l -2.534,-1.656 c -1.254,-0.816 -2.768,-2.04 -2.768,-4.138 0,-2.827 2.068,-4.313 4.691,-4.313 a 8.22,8.22 0 0 1 3.788,0.962 v 1.748 a 7.972,7.972 0 0 0 -3.788,-1.191 2.708,2.708 0 0 0 -3,2.652 c 0,1.368 1.166,2.214 2.3,2.972 l 2.418,1.6 c 1.224,0.816 3.031,2.1 3.031,4.4 0.001,2.677 -2.187,4.338 -5.187,4.338 z" style="fill:#282929" id="path1071"/>
    <path d="m 268.49701,40.104151 v 15.037 h -1.719 v -15.037 h -5.828 v -1.516 h 13.376 v 1.516 z" style="fill:#282929" id="path1073"/>
    <path d="m 278.08601,55.141151 v -16.553 h 1.72 v 16.553 z" style="fill:#282929" id="path1075"/>
    <path d="m 291.11301,40.104151 v 15.037 h -1.719 v -15.037 h -5.827 v -1.516 h 13.375 v 1.516 z" style="fill:#282929" id="path1077"/>
    <path d="m 311.16101,55.141151 v -2.594 a 6.281,6.281 0 0 1 -5.333,2.885 c -3.264,0 -5.42,-2.448 -5.42,-5.916 v -10.928 h 1.753 v 10.928 c 0,2.623 1.515,4.43 3.906,4.43 3.059,0 4.487,-2.623 5.1,-3.643 v -11.716 h 1.719 v 16.554 z" style="fill:#282929" id="path1079"/>
    <path d="m 324.04701,40.104151 v 15.037 h -1.719 v -15.037 h -5.828 v -1.516 h 13.376 v 1.516 z" style="fill:#282929" id="path1081"/>
    <path d="m 169.03001,31.904151 a 27.3,27.3 0 1 0 27.3,27.3 v 0 a 27.3,27.3 0 0 0 -27.3,-27.3 z m 13.655,38.963 a 7.911,7.911 0 0 1 -2.238,-5.471 l -0.031,-1.188 v -5 a 11.384,11.384 0 0 0 -19.855,-7.614 v 0 a 11.428,11.428 0 0 0 -2.882,6.7 v 0.048 c -0.02,0.263 -0.032,0.528 -0.034,0.8 v 0.009 c 0,0.261 0.008,0.523 0.024,0.784 0,0.042 0.007,0.082 0.01,0.124 0.018,0.246 0.043,0.489 0.077,0.731 a 0.3,0.3 0 0 0 0,0.042 q 0.059,0.407 0.148,0.81 c 0.009,0.041 0.02,0.08 0.029,0.121 0.053,0.229 0.111,0.457 0.179,0.684 0.015,0.048 0.032,0.1 0.049,0.145 0.068,0.217 0.141,0.434 0.222,0.648 l 0.063,0.157 q 0.123,0.312 0.268,0.621 c 0.029,0.064 0.058,0.127 0.089,0.189 0.059,0.122 0.121,0.242 0.184,0.36 0.048,0.089 0.1,0.178 0.148,0.266 0.059,0.1 0.12,0.211 0.183,0.313 0.063,0.102 0.128,0.2 0.193,0.3 0.065,0.1 0.113,0.176 0.172,0.261 0.127,0.181 0.257,0.361 0.394,0.535 0.033,0.041 0.065,0.084 0.1,0.125 0.15,0.185 0.3,0.366 0.466,0.541 0.048,0.053 0.1,0.1 0.148,0.155 0.126,0.132 0.254,0.261 0.386,0.386 0.052,0.048 0.1,0.1 0.157,0.15 q 0.255,0.234 0.524,0.451 c 0.048,0.04 0.1,0.079 0.151,0.119 q 0.256,0.2 0.523,0.386 l 0.07,0.048 c 0.215,0.148 0.437,0.289 0.663,0.42 l 0.042,0.024 a 11.454,11.454 0 0 0 3.788,1.376 l 0.071,0.012 c 0.248,0.041 0.5,0.075 0.75,0.1 l 0.18,0.013 c 0.174,0.015 0.349,0.025 0.525,0.031 h 0.018 c 0.1,0 0.193,0.006 0.29,0.007 0.159,0 0.319,0 0.479,-0.007 0.072,0 0.144,0 0.215,0 l 0.015,0.031 a 9.091,9.091 0 0 1 9.569,4.822 c 0.029,0.057 0.062,0.11 0.09,0.168 q -0.417,0.26 -0.853,0.5 c -0.16,0.089 -0.322,0.174 -0.486,0.26 -0.2,0.1 -0.393,0.206 -0.595,0.3 -0.202,0.094 -0.381,0.176 -0.572,0.258 -0.191,0.082 -0.363,0.155 -0.546,0.228 a 19.22,19.22 0 0 1 -7.1,1.406 c -0.04,0 -0.079,0 -0.119,0 -0.058,0 -0.116,0 -0.175,0 -0.193,0 -0.386,-0.007 -0.581,-0.015 -0.125,0 -0.25,-0.009 -0.375,-0.016 -0.125,-0.007 -0.276,-0.021 -0.414,-0.032 -0.27,-0.021 -0.54,-0.048 -0.807,-0.082 h -0.022 a 19.213,19.213 0 0 1 -8.156,-2.97 l -0.049,-0.03 c -0.28,-0.183 -0.556,-0.371 -0.826,-0.569 l -0.062,-0.043 c -0.147,-0.109 -0.289,-0.223 -0.437,-0.338 -0.1,-0.079 -0.2,-0.156 -0.3,-0.236 -0.1,-0.08 -0.2,-0.171 -0.307,-0.258 -0.135,-0.114 -0.27,-0.23 -0.4,-0.348 -0.078,-0.07 -0.155,-0.142 -0.232,-0.213 -0.15,-0.138 -0.3,-0.279 -0.442,-0.421 l -0.193,-0.193 q -0.225,-0.228 -0.441,-0.463 l -0.183,-0.2 c -0.137,-0.153 -0.271,-0.309 -0.4,-0.466 -0.067,-0.079 -0.134,-0.158 -0.2,-0.241 -0.113,-0.139 -0.223,-0.281 -0.333,-0.423 -0.081,-0.107 -0.164,-0.213 -0.244,-0.322 -0.08,-0.109 -0.152,-0.214 -0.228,-0.321 -0.107,-0.152 -0.214,-0.3 -0.317,-0.458 -0.03,-0.046 -0.059,-0.093 -0.089,-0.14 -0.217,-0.333 -0.422,-0.675 -0.619,-1.023 l -0.048,-0.086 q -0.289,-0.517 -0.548,-1.055 c -0.008,-0.016 -0.017,-0.031 -0.025,-0.048 -0.008,-0.017 -0.022,-0.051 -0.033,-0.076 -0.1,-0.2 -0.191,-0.413 -0.282,-0.622 -0.016,-0.04 -0.034,-0.079 -0.048,-0.118 -0.093,-0.22 -0.182,-0.443 -0.266,-0.667 -0.012,-0.03 -0.024,-0.059 -0.035,-0.089 -0.089,-0.236 -0.172,-0.475 -0.251,-0.716 l -0.018,-0.051 c -0.084,-0.258 -0.164,-0.517 -0.237,-0.779 l -0.02,-0.072 c -0.062,-0.223 -0.117,-0.446 -0.171,-0.669 -0.018,-0.078 -0.037,-0.156 -0.054,-0.234 q -0.063,-0.284 -0.119,-0.568 c -0.025,-0.127 -0.049,-0.254 -0.068,-0.382 -0.027,-0.153 -0.054,-0.307 -0.077,-0.46 -0.033,-0.227 -0.061,-0.455 -0.086,-0.685 -0.008,-0.062 -0.017,-0.123 -0.023,-0.186 -0.031,-0.3 -0.054,-0.607 -0.07,-0.913 0,-0.074 -0.005,-0.148 -0.008,-0.222 -0.009,-0.229 -0.015,-0.46 -0.018,-0.691 0,-0.044 0,-0.088 0,-0.133 0,-0.068 0,-0.135 0,-0.2 0,-0.181 0.007,-0.361 0.014,-0.541 0.006,-0.145 0.011,-0.295 0.021,-0.442 0.006,-0.111 0.016,-0.221 0.025,-0.332 a 19.259,19.259 0 0 1 4.778,-11.277 l 0.022,-0.026 q 0.279,-0.315 0.572,-0.618 c 0.017,-0.019 0.034,-0.038 0.052,-0.056 q 0.249,-0.255 0.51,-0.5 l 0.1,-0.09 q 0.264,-0.249 0.537,-0.487 l 0.066,-0.057 q 0.294,-0.253 0.6,-0.5 v 0 a 19.338,19.338 0 0 1 31.4,15.126 v 14.068 a 7.9,7.9 0 0 1 -5.701,-2.41 z" style="fill:#f8ac00" id="path1083"/>
    <path d="m 290.62401,79.853151 v -16.84 h 6.076 a 8.427,8.427 0 1 1 0.036,16.84 z m 3.248,-3.08 h 2.972 a 5.34,5.34 0 1 0 -0.036,-10.679 h -2.936 z" style="fill:#f8ac00" id="path1085"/>
    <path d="m 307.78001,63.325151 a 1.92,1.92 0 1 1 1.821,1.821 1.919,1.919 0 0 1 -1.821,-1.821 z m 0.371,16.528 v -12.576 h 3.056 v 12.576 z" style="fill:#f8ac00" id="path1087"/>
    <path d="m 312.45401,84.371151 v -2.694 h 0.216 c 1.282,0 1.857,-0.7 1.857,-2.062 v -12.338 h 3.045 v 12.264 c 0,3.128 -1.631,4.83 -4.533,4.83 z m 1.714,-21.046 a 1.92,1.92 0 1 1 1.821,1.821 1.918,1.918 0 0 1 -1.821,-1.821 z" style="fill:#f8ac00" id="path1089"/>
    <path d="m 320.07501,73.633151 a 6.64,6.64 0 1 1 6.712,6.567 h -0.1 a 6.568,6.568 0 0 1 -6.616,-6.517 z m 10.236,-0.012 a 3.671,3.671 0 1 0 0,0.066 v -0.067 z" style="fill:#f8ac00" id="path1091"/>
    <path d="m 347.82801,72.422151 v 7.431 h -3.067 v -6.892 c 0,-2 -1.03,-3.116 -2.744,-3.116 a 3.048,3.048 0 0 0 -3.1,2.989 v 7.019 h -3.056 v -12.561 h 2.625 l 0.2,1.631 a 5.66,5.66 0 0 1 4.171,-1.907 c 3.017,0 4.971,1.988 4.971,5.406 z" style="fill:#f8ac00" id="path1093"/>
  </g>
</svg>