<svg width="205" height="48" viewBox="0 0 205 48" fill="none" xmlns="http://www.w3.org/2000/svg">
<g clip-path="url(#clip0_4118_6401)">
<path d="M172.429 0V5.95012H166.453V0H172.429Z" fill="white"/>
<path d="M107.912 39.9802V44.726H101.521C99.1376 44.726 97.4668 44.193 96.4111 43.1014C95.4117 42.0661 94.9453 40.5645 94.9453 38.3607V2.84448H100.501V11.9977H105.159L105.195 16.682H100.501L97.0824 16.6871V18.2605H100.501V37.5151C100.501 39.519 100.977 39.9802 103.038 39.9802H107.912Z" fill="white"/>
<path d="M172.432 11.9977V44.6388H166.876V18.2604H170.295V16.6871H163.109V11.9977H172.432Z" fill="white"/>
<path d="M146.806 0V44.7259H141.25V0H146.806Z" fill="white"/>
<path d="M158.7 0H153.145V44.7259H158.7V0Z" fill="white"/>
<path d="M86.8424 12.2797C86.8885 12.2797 86.9346 12.2797 86.9807 12.2797H86.8424ZM89.4561 29.8738C88.2415 28.5259 86.1044 27.5419 83.096 26.9577L75.0908 25.333C73.379 25.0102 72.2002 24.4669 71.5852 23.7289C70.9702 22.9858 70.6576 22.1658 70.6576 21.2894C70.6576 20.413 70.9395 19.6084 71.493 18.9063C72.0516 18.199 72.8716 17.6404 73.9274 17.2355C74.9114 16.8614 76.1004 16.6513 77.4636 16.6257H77.7711V16.6103H88.7694V11.967H77.4534C77.4021 11.967 77.3509 11.967 77.3047 11.967C74.9831 12.0183 72.9229 12.4539 71.1804 13.2534C69.3046 14.1144 67.844 15.2778 66.8292 16.7077C65.8145 18.1375 65.2969 19.7417 65.2969 21.4739C65.2969 23.6674 65.9887 25.5278 67.352 27.0038C68.7101 28.4747 70.9907 29.5407 74.1272 30.171L81.8147 31.7342C83.3932 32.0622 84.4746 32.5747 85.0281 33.2717C85.5816 33.9738 85.8635 34.7528 85.8635 35.5882C85.8635 36.9053 85.2382 37.9918 84.0031 38.8118C82.7629 39.6369 81.0152 40.0623 78.8115 40.0674H77.4482L67.4135 40.0623V44.7209H78.381C78.5245 44.7209 78.6731 44.7209 78.8166 44.7209C81.169 44.6748 83.2805 44.275 85.0999 43.5268C87.0371 42.7324 88.5695 41.569 89.6457 40.0725C90.7271 38.576 91.2755 36.8182 91.2755 34.8399C91.2755 32.8617 90.6605 31.2319 89.4459 29.8738H89.4561Z" fill="white"/>
<path d="M118.039 29.8174L137.196 29.8277L137.222 29.5407L137.258 29.1768C137.77 23.7853 136.494 19.1113 133.67 16.0209C131.246 13.3662 127.756 11.967 123.59 11.967C119.423 11.967 115.666 13.5404 113.124 16.5129C110.634 19.429 109.316 23.5239 109.316 28.3619C109.316 33.1999 110.659 37.2435 113.201 40.134C115.784 43.0809 119.454 44.6338 123.815 44.6338C127.239 44.6338 130.324 43.6652 132.733 41.8304C135.187 39.9649 136.71 37.3819 137.145 34.3633V34.3223L137.196 33.8713L137.237 33.5228H131.559L131.503 33.7688L131.431 34.0814C130.729 37.3255 127.813 39.3397 123.815 39.3397C121.376 39.3397 119.305 38.5043 117.829 36.9207C117.045 36.0802 116.42 35.0244 115.974 33.7893C115.579 32.6977 115.374 31.5497 115.323 30.3914L115.297 29.8174H115.19H118.039ZM116.819 24.7642H115.374C115.39 24.6668 115.405 24.5745 115.42 24.4772C115.82 22.2222 116.778 20.3669 118.183 19.1113C119.577 17.8659 121.432 17.2048 123.538 17.2048C125.886 17.2048 127.761 17.8454 129.104 19.1062C130.467 20.3874 131.251 22.2837 131.431 24.759H116.937C116.896 24.759 116.855 24.759 116.819 24.759V24.7642Z" fill="white"/>
<path d="M199.732 12.3311V14.9961V20.9052C199.594 18.9987 198.892 17.1486 197.713 15.6367C196.391 13.9301 194.515 12.7052 192.429 12.1876C191.389 11.9262 190.271 11.7981 189.123 11.7981C185.341 11.7981 182.164 13.2895 179.929 16.1082C177.654 18.9833 176.449 23.1602 176.449 28.1878C176.449 33.2155 177.654 37.4077 179.929 40.2982C182.164 43.1375 185.346 44.6391 189.123 44.6391C191.722 44.6391 194.115 43.9472 196.037 42.6352C197.662 41.5282 198.922 40.0061 199.732 38.2021V44.1061H205.001V12.3311H199.732ZM198.84 30.0892C198.84 32.703 198.046 35.1425 196.606 36.9516C195.032 38.9298 192.839 39.9753 190.256 39.9753C184.982 39.9753 181.836 35.5678 181.836 28.1878C181.836 24.4568 182.645 21.4075 184.178 19.3677C185.633 17.4253 187.734 16.4003 190.261 16.4003C192.788 16.4003 195.043 17.4458 196.611 19.4241C198.051 21.2332 198.845 23.6727 198.845 26.2865V30.0841L198.84 30.0892Z" fill="white"/>
<path d="M39.7546 25.748L28.5821 30.873L28.3669 30.9704L28.2644 31.1857L22.1349 44.3723L16.0054 31.1857L15.9029 30.9704L15.6876 30.873L4.51 25.748H0L21.156 46.8118C21.4174 47.0732 21.7607 47.2167 22.1297 47.2167C22.4987 47.2167 22.8421 47.0732 23.1035 46.8118L44.2595 25.748H39.7546ZM15.6876 18.6602L15.9029 18.5628L16.0054 18.3475L22.1349 5.16091L28.2644 18.3475L28.3669 18.5628L28.5821 18.6602L39.7546 23.7852H44.2595L23.1035 2.72141C22.8421 2.46516 22.4987 2.32166 22.1297 2.32166C21.7607 2.32166 21.4174 2.46516 21.156 2.72141L0 23.7852H4.50487L15.6825 18.6602H15.6876Z" fill="white"/>
</g>
<defs>
<clipPath id="clip0_4118_6401">
<rect width="205" height="47.2115" fill="white"/>
</clipPath>
</defs>
</svg>
